<svg xmlns="http://www.w3.org/2000/svg" xmlns:xlink="http://www.w3.org/1999/xlink" viewBox="0,0,256,256" width="48px" height="48px"><g fill="#8a90a2" fill-rule="nonzero" stroke="none" stroke-width="1" stroke-linecap="butt" stroke-linejoin="miter" stroke-miterlimit="10" stroke-dasharray="" stroke-dashoffset="0" font-family="none" font-weight="none" font-size="none" text-anchor="none" style="mix-blend-mode: normal"><g transform="scale(5.33333,5.33333)"><path d="M23.97852,4c-0.39034,0.00571 -0.76308,0.16335 -1.03906,0.43945l-6,6c-0.39185,0.37623 -0.54969,0.9349 -0.41265,1.46055c0.13704,0.52565 0.54754,0.93616 1.07319,1.07319c0.52565,0.13704 1.08432,-0.0208 1.46055,-0.41265l3.4375,-3.4375l-0.01758,20.375c-0.00832,0.54092 0.27524,1.04443 0.74212,1.31772c0.46688,0.2733 1.04474,0.27405 1.51233,0.00197c0.46759,-0.27208 0.75246,-0.77484 0.74555,-1.31579l0.01758,-20.38281l3.44141,3.44141c0.37623,0.39185 0.9349,0.54969 1.46055,0.41265c0.52565,-0.13704 0.93616,-0.54754 1.07319,-1.07319c0.13704,-0.52565 -0.0208,-1.08432 -0.41265,-1.46055l-6,-6c-0.28651,-0.28663 -0.6768,-0.44514 -1.08203,-0.43945zM12.52734,7.98633c-0.33851,0.00472 -0.66548,0.1238 -0.92774,0.33789c-4.62272,3.66015 -7.59961,9.32683 -7.59961,15.67578c0,11.02771 8.97229,20 20,20c11.02771,0 20,-8.97229 20,-20c0,-6.34895 -2.97689,-12.01563 -7.59961,-15.67578c-0.41986,-0.33534 -0.98701,-0.4205 -1.48684,-0.22327c-0.49983,0.19723 -0.856,0.64674 -0.93373,1.17842c-0.07773,0.53169 0.13484,1.06434 0.55729,1.39641c3.93528,3.11585 6.46289,7.91117 6.46289,13.32422c0,9.40629 -7.59371,17 -17,17c-9.40629,0 -17,-7.59371 -17,-17c0,-5.41305 2.52761,-10.20837 6.46289,-13.32422c0.51253,-0.3939 0.71511,-1.0718 0.50274,-1.68233c-0.21237,-0.61052 -0.79194,-1.01635 -1.43828,-1.00713z"></path></g></g></svg>