<svg xmlns="http://www.w3.org/2000/svg" xmlns:xlink="http://www.w3.org/1999/xlink" viewBox="0,0,256,256" width="48px" height="48px"><g fill="#8a90a2" fill-rule="nonzero" stroke="none" stroke-width="1" stroke-linecap="butt" stroke-linejoin="miter" stroke-miterlimit="10" stroke-dasharray="" stroke-dashoffset="0" font-family="none" font-weight="none" font-size="none" text-anchor="none" style="mix-blend-mode: normal"><g transform="scale(5.33333,5.33333)"><path d="M23.99805,3.97852c-0.82766,0.01187 -1.4893,0.69186 -1.47852,1.51953l-0.01758,20.38281l-3.44141,-3.44141c-0.28248,-0.2909 -0.67069,-0.45506 -1.07617,-0.45508c-0.61065,0.00015 -1.16026,0.37042 -1.38978,0.93629c-0.22952,0.56587 -0.09314,1.21439 0.34486,1.63988l6,6c0.58579,0.58555 1.5353,0.58555 2.12109,0l6,-6c0.39185,-0.37623 0.54969,-0.9349 0.41265,-1.46055c-0.13704,-0.52565 -0.54754,-0.93616 -1.07319,-1.07319c-0.52565,-0.13704 -1.08432,0.0208 -1.46055,0.41265l-3.4375,3.4375l0.01758,-20.375c0.00634,-0.40561 -0.15186,-0.7965 -0.43852,-1.08353c-0.28666,-0.28703 -0.67735,-0.44573 -1.08296,-0.43991zM17.51563,5.16602c-0.18584,0.00058 -0.36995,0.03568 -0.54297,0.10352c-7.58345,2.8469 -12.97266,10.17134 -12.97266,18.73047c0,11.02771 8.97229,20 20,20c11.02771,0 20,-8.97229 20,-20c0,-8.55913 -5.38893,-15.88454 -12.97266,-18.73047c-0.5034,-0.19579 -1.0732,-0.10585 -1.49181,0.23549c-0.41861,0.34134 -0.6214,0.88137 -0.53094,1.41388c0.09046,0.53251 0.46021,0.97527 0.96806,1.15923c6.43827,2.41607 11.02734,8.62101 11.02734,15.92188c0,9.40629 -7.59371,17 -17,17c-9.40629,0 -17,-7.59371 -17,-17c0,-7.30087 4.58879,-13.50478 11.02734,-15.92187c0.6873,-0.24667 1.09714,-0.9524 0.97076,-1.6716c-0.12638,-0.7192 -0.75226,-1.24293 -1.48248,-1.24051z"></path></g></g></svg>