<svg xmlns="http://www.w3.org/2000/svg" xmlns:xlink="http://www.w3.org/1999/xlink" viewBox="0,0,256,256" width="48px" height="48px"><g fill="#8a90a2" fill-rule="nonzero" stroke="none" stroke-width="1" stroke-linecap="butt" stroke-linejoin="miter" stroke-miterlimit="10" stroke-dasharray="" stroke-dashoffset="0" font-family="none" font-weight="none" font-size="none" text-anchor="none" style="mix-blend-mode: normal"><g transform="scale(5.33333,5.33333)"><path d="M24,2c-1.64391,0 -2.99817,0.8518 -4.00195,2h-4.49805c-0.49208,0.00005 -0.95284,0.24143 -1.23303,0.64594c-0.2802,0.40451 -0.34419,0.92071 -0.17127,1.3814l2.61328,6.96875c-2.88167,2.30085 -12.06078,10.52265 -11.64844,21.87891c0.18497,5.08672 4.41344,9.125 9.49609,9.125h18.88672c5.08266,0 9.31112,-4.03828 9.49609,-9.125c0.41326,-11.3563 -8.76655,-19.57806 -11.64844,-21.87891l2.61328,-6.96875c0.17293,-0.46069 0.10893,-0.97689 -0.17127,-1.3814c-0.2802,-0.40451 -0.74096,-0.64589 -1.23303,-0.64594h-4.49805c-1.00378,-1.1482 -2.35805,-2 -4.00195,-2zM24,5c0.92927,0 1.70916,0.49895 2.14844,1.25391c0.26857,0.46191 0.76256,0.7461 1.29687,0.74609h2.89063l-1.875,5h-8.92188l-1.875,-5h2.89063c0.53431,0 1.0283,-0.28419 1.29687,-0.74609c0.43928,-0.75495 1.21917,-1.25391 2.14844,-1.25391zM19.01563,15h9.96875c1.73208,1.3615 11.33488,9.38238 10.95703,19.76563c-0.12703,3.49328 -2.9947,6.23438 -6.49805,6.23438h-18.88672c-3.50334,0 -6.37102,-2.7411 -6.49805,-6.23437c-0.37701,-10.38329 9.22508,-18.40414 10.95703,-19.76562zM23.97656,17.97852c-0.82766,0.01293 -1.48843,0.69381 -1.47656,1.52148v0.72656c-1.99593,0.57018 -3.5,2.34197 -3.5,4.50586v0.00195c0,2.61382 2.15175,4.76563 4.76563,4.76563h1.46875c0.99213,0 1.76563,0.7735 1.76563,1.76563c0,0.98653 -0.76473,1.75541 -1.75195,1.76367l-1.83984,0.01563c-0.64532,0 -1.16571,-0.41857 -1.34375,-0.98437c-0.15229,-0.52162 -0.57475,-0.92011 -1.10436,-1.0417c-0.52962,-0.12159 -1.08358,0.05273 -1.44813,0.45569c-0.36455,0.40296 -0.48269,0.97156 -0.30883,1.48639c0.46639,1.48215 1.77675,2.43322 3.29688,2.7832v0.75586c-0.00765,0.54095 0.27656,1.04412 0.74381,1.31683c0.46725,0.27271 1.04514,0.27271 1.51238,0c0.46725,-0.27271 0.75146,-0.77588 0.74381,-1.31683v-0.51758c2.48898,-0.14634 4.5,-2.19746 4.5,-4.7168c0,-2.61387 -2.15175,-4.76562 -4.76562,-4.76562h-1.46875c-0.99213,0 -1.76562,-0.7735 -1.76562,-1.76562v-0.00195c0,-0.9822 0.75785,-1.75132 1.74023,-1.76562l0.82422,-0.01172c0.64893,0 1.17316,0.42368 1.34766,0.99414c0.15282,0.51718 0.57147,0.91254 1.09655,1.03553c0.52508,0.12299 1.07576,-0.04533 1.44235,-0.44086c0.36659,-0.39552 0.49268,-0.95738 0.33024,-1.47162c-0.45538,-1.48873 -1.7633,-2.44405 -3.28125,-2.80469v-0.76758c0.00582,-0.40562 -0.15288,-0.7963 -0.43991,-1.08296c-0.28703,-0.28666 -0.67792,-0.44486 -1.08353,-0.43852z"></path></g></g></svg>