<svg xmlns="http://www.w3.org/2000/svg" xmlns:xlink="http://www.w3.org/1999/xlink" viewBox="0,0,256,256" width="48px" height="48px"><g fill="#8a90a2" fill-rule="nonzero" stroke="none" stroke-width="1" stroke-linecap="butt" stroke-linejoin="miter" stroke-miterlimit="10" stroke-dasharray="" stroke-dashoffset="0" font-family="none" font-weight="none" font-size="none" text-anchor="none" style="mix-blend-mode: normal"><g transform="scale(5.33333,5.33333)"><path d="M38.498,36h-28.996c-1.205,0 -2.31,-0.607 -2.955,-1.625c-0.645,-1.018 -0.725,-2.275 -0.212,-3.365l2.665,-5.362v-6.267c0,-8.239 6.271,-14.987 14.277,-15.364v0c4.151,-0.188 8.08,1.271 11.075,4.128c2.998,2.859 4.648,6.714 4.648,10.855v6.648l2.65,5.333c0.527,1.119 0.448,2.377 -0.197,3.395c-0.645,1.018 -1.75,1.624 -2.955,1.624zM23.348,5.516h0.01zM18.09,38c0.478,2.833 2.942,5 5.91,5c2.968,0 5.431,-2.167 5.91,-5z"></path></g></g></svg>