<svg xmlns="http://www.w3.org/2000/svg" xmlns:xlink="http://www.w3.org/1999/xlink" viewBox="0,0,256,256" width="64px" height="64px"><g fill="#2453ff" fill-rule="nonzero" stroke="none" stroke-width="1" stroke-linecap="butt" stroke-linejoin="miter" stroke-miterlimit="10" stroke-dasharray="" stroke-dashoffset="0" font-family="none" font-weight="none" font-size="none" text-anchor="none" style="mix-blend-mode: normal"><g transform="scale(3.55556,3.55556)"><path d="M36,13c-2.209,0 -4,1.791 -4,4v15h-15c-2.209,0 -4,1.791 -4,4c0,2.209 1.791,4 4,4h15v15c0,2.209 1.791,4 4,4c2.209,0 4,-1.791 4,-4v-15h15c2.209,0 4,-1.791 4,-4c0,-2.209 -1.791,-4 -4,-4h-15v-15c0,-2.209 -1.791,-4 -4,-4z"></path></g></g></svg>