<svg xmlns="http://www.w3.org/2000/svg" xmlns:xlink="http://www.w3.org/1999/xlink" viewBox="0,0,256,256" width="48px" height="48px"><g fill="#8a90a2" fill-rule="nonzero" stroke="none" stroke-width="1" stroke-linecap="butt" stroke-linejoin="miter" stroke-miterlimit="10" stroke-dasharray="" stroke-dashoffset="0" font-family="none" font-weight="none" font-size="none" text-anchor="none" style="mix-blend-mode: normal"><g transform="scale(5.33333,5.33333)"><path d="M24.04883,2c-0.38678,-0.01207 -0.76326,0.12579 -1.05078,0.38477c0,0 -7.50788,6.61523 -16.49805,6.61523c-0.82839,0.00008 -1.49992,0.67161 -1.5,1.5v12.25977c0,6.67805 3.08941,17.66664 18.41797,24.12305c0.3722,0.15668 0.79186,0.15668 1.16406,0c15.32856,-6.45641 18.41797,-17.445 18.41797,-24.12305v-12.25977c-0.00008,-0.82839 -0.67161,-1.49992 -1.5,-1.5c-8.99017,0 -16.49805,-6.61523 -16.49805,-6.61523c-0.26249,-0.23649 -0.60002,-0.37275 -0.95312,-0.38477zM24,5.42773c2.06297,1.65863 8.11126,5.90945 16,6.44727v10.88477c0,5.74226 -2.20656,15.00592 -16,21.06641c-13.79344,-6.06049 -16,-15.32415 -16,-21.06641v-10.88477c7.88874,-0.53781 13.93703,-4.78863 16,-6.44727zM24,14c-0.844,0 -1.66231,0.10764 -2.44531,0.30664c-0.391,0.099 -0.67075,0.4447 -0.71875,0.8457l-0.0957,0.80078c-0.056,0.469 -0.33028,0.88314 -0.73828,1.11914c-0.408,0.236 -0.90584,0.26608 -1.33984,0.08008l-0.73242,-0.3125c-0.371,-0.158 -0.8098,-0.08978 -1.0918,0.19922c-1.138,1.17 -1.99608,2.61452 -2.45508,4.22852c-0.11,0.389 0.05005,0.80583 0.37305,1.04883l0.64453,0.48438c0.378,0.283 0.59961,0.72822 0.59961,1.19922c0,0.471 -0.22161,0.91622 -0.59961,1.19922l-0.64453,0.48438c-0.323,0.242 -0.48405,0.65983 -0.37305,1.04883c0.459,1.614 1.31413,3.05852 2.45313,4.22852c0.281,0.289 0.72275,0.35822 1.09375,0.19922l0.73047,-0.3125c0.434,-0.186 0.93184,-0.15492 1.33984,0.08008c0.408,0.235 0.68228,0.65209 0.73828,1.12109l0.09766,0.80078c0.048,0.401 0.32775,0.7467 0.71875,0.8457c0.784,0.198 1.60131,0.30469 2.44531,0.30469c0.844,0 1.66231,-0.10764 2.44531,-0.30664c0.391,-0.099 0.67075,-0.4447 0.71875,-0.8457l0.0957,-0.80078c0.056,-0.469 0.33028,-0.88314 0.73828,-1.11914c0.408,-0.236 0.90584,-0.26608 1.33984,-0.08008l0.73242,0.3125c0.371,0.159 0.8098,0.08978 1.0918,-0.19922c1.138,-1.17 1.99608,-2.61452 2.45508,-4.22852c0.11,-0.389 -0.05005,-0.80583 -0.37305,-1.04883l-0.64453,-0.48437c-0.378,-0.283 -0.59961,-0.72722 -0.59961,-1.19922c0,-0.472 0.22161,-0.91622 0.59961,-1.19922l0.64453,-0.48437c0.323,-0.242 0.48405,-0.65983 0.37305,-1.04883c-0.459,-1.614 -1.31413,-3.05851 -2.45313,-4.22852c-0.281,-0.289 -0.72275,-0.35822 -1.09375,-0.19922l-0.73047,0.3125c-0.434,0.186 -0.93184,0.15492 -1.33984,-0.08008c-0.408,-0.235 -0.68228,-0.65209 -0.73828,-1.12109l-0.09766,-0.80078c-0.048,-0.4 -0.32775,-0.7467 -0.71875,-0.8457c-0.784,-0.198 -1.60131,-0.30469 -2.44531,-0.30469zM24,21c1.657,0 3,1.343 3,3c0,1.657 -1.343,3 -3,3c-1.657,0 -3,-1.343 -3,-3c0,-1.657 1.343,-3 3,-3z"></path></g></g></svg>