<svg xmlns="http://www.w3.org/2000/svg" xmlns:xlink="http://www.w3.org/1999/xlink" viewBox="0,0,256,256" width="48px" height="48px"><g fill="#8a90a2" fill-rule="nonzero" stroke="none" stroke-width="1" stroke-linecap="butt" stroke-linejoin="miter" stroke-miterlimit="10" stroke-dasharray="" stroke-dashoffset="0" font-family="none" font-weight="none" font-size="none" text-anchor="none" style="mix-blend-mode: normal"><g transform="scale(5.33333,5.33333)"><path d="M10.5,6c-2.35535,0 -4.29358,1.85742 -4.4668,4.17188c-0.02309,0.10782 -0.03423,0.21786 -0.0332,0.32813v3v1.5v22.5c0,2.4675 2.0325,4.5 4.5,4.5h27c2.4675,0 4.5,-2.0325 4.5,-4.5v-21c0,-2.4675 -2.0325,-4.5 -4.5,-4.5h-27c-0.8465,0 -1.5,-0.6535 -1.5,-1.5c0,-0.8465 0.6535,-1.5 1.5,-1.5h25c0.54095,0.00765 1.04412,-0.27656 1.31683,-0.74381c0.27271,-0.46725 0.27271,-1.04514 0,-1.51238c-0.27271,-0.46725 -0.77588,-0.75146 -1.31683,-0.74381zM9,15h1.5h27c0.8465,0 1.5,0.6535 1.5,1.5v21c0,0.8465 -0.6535,1.5 -1.5,1.5h-27c-0.8465,0 -1.5,-0.6535 -1.5,-1.5zM33.5,24c-1.38071,0 -2.5,1.11929 -2.5,2.5c0,1.38071 1.11929,2.5 2.5,2.5c1.38071,0 2.5,-1.11929 2.5,-2.5c0,-1.38071 -1.11929,-2.5 -2.5,-2.5z"></path></g></g></svg>